<?xml version="1.0" encoding="UTF-8" standalone="no"?>
<svg width="50px" height="50px" viewBox="0 0 50 50" version="1.1" xmlns="http://www.w3.org/2000/svg" xmlns:xlink="http://www.w3.org/1999/xlink">
    <!-- Generator: Sketch 40.1 (33804) - http://www.bohemiancoding.com/sketch -->
    <title>Group 2</title>
    <desc>Created with Sketch.</desc>
    <defs></defs>
    <g id="Page-1" stroke="none" stroke-width="1" fill="none" fill-rule="evenodd">
        <g id="Desktop" transform="translate(-378.000000, -660.000000)">
            <g id="Group-2" transform="translate(378.000000, 660.000000)">
                <g id="Page-1" fill="#00AEEF">
                    <path d="M12,7 L12,0 L0,0 C11.0338824,2.9167242 12,7 12,7" id="Fill-1"></path>
                    <polygon id="Fill-3" points="13 2 13 13 23 2.00717048"></polygon>
                </g>
                <rect id="Rectangle-2-Copy" fill="#003C68" x="1" y="21" width="9" height="5"></rect>
                <rect id="Rectangle-2-Copy" fill="#003C68" x="11" y="21" width="9" height="5"></rect>
                <rect id="Rectangle-2-Copy" fill="#003C68" x="21" y="21" width="9" height="5"></rect>
                <rect id="Rectangle-2-Copy" fill="#003C68" x="31" y="21" width="9" height="5"></rect>
                <rect id="Rectangle-2-Copy" fill="#003C68" x="41" y="21" width="9" height="5"></rect>
                <rect id="Rectangle-2-Copy" fill="#8CD0BC" x="1" y="27" width="9" height="5"></rect>
                <rect id="Rectangle-2-Copy" fill="#8CD0BC" x="11" y="27" width="9" height="5"></rect>
                <rect id="Rectangle-2-Copy" fill="#8CD0BC" x="21" y="27" width="9" height="5"></rect>
                <rect id="Rectangle-2-Copy" fill="#8CD0BC" x="31" y="27" width="9" height="5"></rect>
                <rect id="Rectangle-2-Copy" fill="#8CD0BC" x="41" y="27" width="9" height="5"></rect>
                <rect id="Rectangle-2-Copy" fill="#8CD0BC" x="1" y="33" width="9" height="5"></rect>
                <rect id="Rectangle-2-Copy" fill="#8CD0BC" x="11" y="33" width="9" height="5"></rect>
                <rect id="Rectangle-2-Copy" fill="#8CD0BC" x="21" y="33" width="9" height="5"></rect>
                <rect id="Rectangle-2-Copy" fill="#8CD0BC" x="31" y="33" width="9" height="5"></rect>
                <rect id="Rectangle-2-Copy" fill="#8CD0BC" x="41" y="33" width="9" height="5"></rect>
                <rect id="Rectangle-2-Copy" fill="#8CD0BC" x="1" y="39" width="9" height="5"></rect>
                <rect id="Rectangle-2-Copy" fill="#8CD0BC" x="11" y="39" width="9" height="5"></rect>
                <rect id="Rectangle-2-Copy" fill="#8CD0BC" x="21" y="39" width="9" height="5"></rect>
                <rect id="Rectangle-2-Copy" fill="#8CD0BC" x="31" y="39" width="9" height="5"></rect>
                <rect id="Rectangle-2-Copy" fill="#8CD0BC" x="41" y="39" width="9" height="5"></rect>
                <rect id="Rectangle-2-Copy" fill="#8CD0BC" x="1" y="45" width="9" height="5"></rect>
                <rect id="Rectangle-2-Copy" fill="#8CD0BC" x="11" y="45" width="9" height="5"></rect>
                <rect id="Rectangle-2-Copy" fill="#8CD0BC" x="21" y="45" width="9" height="5"></rect>
                <rect id="Rectangle-2-Copy" fill="#8CD0BC" x="31" y="45" width="9" height="5"></rect>
                <rect id="Rectangle-2-Copy" fill="#16A085" x="41" y="45" width="9" height="5"></rect>
            </g>
        </g>
    </g>
</svg>