<svg xmlns="http://www.w3.org/2000/svg" viewBox="0 0 591.53 508.69"><defs><style>.cls-1{fill:#5570bb;}.cls-2{fill:#112d78;}.cls-3{fill:#1a3d9e;}.cls-4{fill:#7f96d4;}</style></defs><title>Asset 14</title><g id="Layer_2" data-name="Layer 2"><g id="Aphelion"><rect class="cls-1" y="83.9" width="169.92" height="424.8"/><path class="cls-2" d="M379.13,465.2C287,497,209.21,505.5,209.21,505.5v-463H379.13Z"/><path class="cls-3" d="M591.53,359.75c-79.57,55.25-169.92,90-169.92,90V0H591.53Z"/><path class="cls-4" d="M.06,83.84V508.63H170C170,83.84.06,83.84.06,83.84Z"/><path class="cls-1" d="M378.66,465.36C287,497,209.21,505.5,209.21,505.5s.75-462.64,0-463.16C379,42.34,378.66,463.86,378.66,465.36Z"/><path class="cls-2" d="M585.53,363.75c-80.57,54.25-163.92,86-163.92,86S421,0,421.61,0C592,0,585,364,585.53,363.75Z"/></g></g></svg>