<svg xmlns="http://www.w3.org/2000/svg" xmlns:xlink="http://www.w3.org/1999/xlink" viewBox="0 0 491.43 500"><defs><style>.cls-1{fill:none;}.cls-2{fill:#4e67b3;}.cls-3{fill:#778dcd;}.cls-4{fill:#0f2872;}.cls-5{fill:#193791;}.cls-6{clip-path:url(#clip-path);}</style><clipPath id="clip-path"><path class="cls-1" d="M422.86,285.71H245.71V214.29H447.14ZM474.29,34.29,357.14,68.57l-111.43-30v100H460Z"/></clipPath></defs><title>Asset 43</title><g id="Layer_2" data-name="Layer 2"><g id="Fidelius"><path class="cls-2" d="M0,0S70,47.14,128.57,47.14,245.71,14.29,245.71,14.29V500C114.29,444.29,0,307.14,0,0Z"/><path class="cls-3" d="M491.43,0s-70,47.14-128.57,47.14S245.71,14.29,245.71,14.29V500C377.14,444.29,491.43,307.14,491.43,0Z"/><path class="cls-4" d="M27.14,45.71s42.86,30,101.43,30S245.71,42.86,245.71,42.86V471.43C131.43,422.86,27.14,268.57,27.14,45.71Z"/><path class="cls-5" d="M128.57,75.71c67.14-2.85,117.14-32.85,117.14-32.85V471.43C171.43,422.86,128.57,184.29,128.57,75.71Z"/><g class="cls-6"><path class="cls-4" d="M464.29,45.71s-42.86,30-101.43,30S245.71,42.86,245.71,42.86V471.43C360,422.86,464.29,268.57,464.29,45.71Z"/></g></g></g></svg>